<svg width="210" height="231" viewBox="0 0 210 231" fill="none" xmlns="http://www.w3.org/2000/svg">
<g filter="url(#filter0_d_354_5)">
<path d="M27.5816 57.5967L93.3235 21.5233C98.6126 18.6211 105.024 18.6479 110.288 21.5942L174.546 57.555C180.075 60.6492 183.5 66.4903 183.5 72.8263V109.7V153.324C183.5 159.868 179.849 165.865 174.035 168.87L109.783 202.079C104.787 204.662 98.8537 204.685 93.837 202.143L28.0893 168.824C22.2071 165.843 18.5 159.808 18.5 153.214V109.7V72.9388C18.5 66.5505 21.981 60.6698 27.5816 57.5967Z" stroke="#069B39" stroke-width="5" shape-rendering="crispEdges"/>
</g>
<path d="M53.0225 115.562C53.0225 112.069 53.0947 108.431 53.2393 104.649C53.3597 100.675 53.5524 97.1699 53.8174 94.1348H53.7451L49.6621 93.376C49.3971 92.1956 49.2044 91.196 49.084 90.377C48.9876 89.5339 48.9395 88.6667 48.9395 87.7754C48.9395 87.1491 48.9515 86.6673 48.9756 86.3301C49.4814 85.6797 50.2523 85.0293 51.2881 84.3789C52.348 83.7044 53.5765 83.1383 54.9736 82.6807C56.3708 82.223 57.8161 81.9941 59.3096 81.9941C62.3688 81.9941 64.6452 82.777 66.1387 84.3428C67.6322 85.9085 68.3066 88.2451 68.1621 91.3525L68.0537 94.4961C67.9574 99.7715 67.7406 104.059 67.4033 107.359H79.6885C79.7607 102.566 79.9775 98.1455 80.3389 94.0986H80.2666L75.0996 93.3398C74.8346 92.1595 74.6419 91.1598 74.5215 90.3408C74.4251 89.4977 74.377 88.6305 74.377 87.7393C74.377 87.113 74.389 86.6312 74.4131 86.2939C74.9189 85.6676 75.7861 85.0173 77.0146 84.3428C78.2432 83.6683 79.6523 83.1022 81.2422 82.6445C82.8561 82.1868 84.446 81.958 86.0117 81.958C89.071 81.958 91.4076 82.7529 93.0215 84.3428C94.6595 85.9085 95.4785 88.2331 95.4785 91.3164C95.4785 99.9401 94.1416 112.021 91.4678 127.558L96.8154 125.245C98.6462 126.835 99.694 128.979 99.959 131.677C99.959 131.845 99.3929 132.544 98.2607 133.772C97.1527 134.977 95.6953 136.109 93.8887 137.169C92.1061 138.205 90.0706 138.723 87.7822 138.723C85.3493 138.723 83.3379 138.072 81.748 136.771C80.1823 135.471 79.4115 133.194 79.4355 129.942V127.594C79.4355 123.595 79.5199 120.271 79.6885 117.621C79.1344 117.669 78.2913 117.693 77.1592 117.693C75.4971 117.693 73.0521 117.549 69.8242 117.26C68.2826 117.115 67.1865 117.019 66.5361 116.971C66.6084 119.404 66.7891 121.825 67.0781 124.233C67.3672 126.618 67.7406 129.316 68.1982 132.327C68.4873 134.23 68.6921 135.663 68.8125 136.627C67.8249 137.229 66.2591 137.723 64.1152 138.108C61.9714 138.494 60.1527 138.687 58.6592 138.687C57.9124 138.687 57.2018 138.626 56.5273 138.506C55.877 138.385 55.1543 138.205 54.3594 137.964C53.4681 132.399 53.0225 124.932 53.0225 115.562ZM105.343 115.562C105.343 112.069 105.415 108.431 105.56 104.649C105.68 100.675 105.873 97.1699 106.138 94.1348H106.065L101.982 93.376C101.717 92.1956 101.525 91.196 101.404 90.377C101.308 89.5339 101.26 88.6667 101.26 87.7754C101.26 87.1491 101.272 86.6673 101.296 86.3301C101.802 85.6797 102.573 85.0293 103.608 84.3789C104.668 83.7044 105.897 83.1383 107.294 82.6807C108.691 82.223 110.136 81.9941 111.63 81.9941C114.689 81.9941 116.965 82.777 118.459 84.3428C119.952 85.9085 120.627 88.2451 120.482 91.3525L120.374 94.4961C120.278 99.7715 120.061 104.059 119.724 107.359H132.009C132.081 102.566 132.298 98.1455 132.659 94.0986H132.587L127.42 93.3398C127.155 92.1595 126.962 91.1598 126.842 90.3408C126.745 89.4977 126.697 88.6305 126.697 87.7393C126.697 87.113 126.709 86.6312 126.733 86.2939C127.239 85.6676 128.106 85.0173 129.335 84.3428C130.563 83.6683 131.973 83.1022 133.562 82.6445C135.176 82.1868 136.766 81.958 138.332 81.958C141.391 81.958 143.728 82.7529 145.342 84.3428C146.98 85.9085 147.799 88.2331 147.799 91.3164C147.799 99.9401 146.462 112.021 143.788 127.558L149.136 125.245C150.966 126.835 152.014 128.979 152.279 131.677C152.279 131.845 151.713 132.544 150.581 133.772C149.473 134.977 148.016 136.109 146.209 137.169C144.426 138.205 142.391 138.723 140.103 138.723C137.67 138.723 135.658 138.072 134.068 136.771C132.503 135.471 131.732 133.194 131.756 129.942V127.594C131.756 123.595 131.84 120.271 132.009 117.621C131.455 117.669 130.612 117.693 129.479 117.693C127.817 117.693 125.372 117.549 122.145 117.26C120.603 117.115 119.507 117.019 118.856 116.971C118.929 119.404 119.109 121.825 119.398 124.233C119.688 126.618 120.061 129.316 120.519 132.327C120.808 134.23 121.012 135.663 121.133 136.627C120.145 137.229 118.579 137.723 116.436 138.108C114.292 138.494 112.473 138.687 110.979 138.687C110.233 138.687 109.522 138.626 108.848 138.506C108.197 138.385 107.475 138.205 106.68 137.964C105.788 132.399 105.343 124.932 105.343 115.562Z" fill="url(#paint0_linear_354_5)"/>
<defs>
<filter id="filter0_d_354_5" x="0" y="0.865425" width="210" height="229.668" filterUnits="userSpaceOnUse" color-interpolation-filters="sRGB">
<feFlood flood-opacity="0" result="BackgroundImageFix"/>
<feColorMatrix in="SourceAlpha" type="matrix" values="0 0 0 0 0 0 0 0 0 0 0 0 0 0 0 0 0 0 127 0" result="hardAlpha"/>
<feOffset dx="4" dy="4"/>
<feGaussianBlur stdDeviation="10"/>
<feComposite in2="hardAlpha" operator="out"/>
<feColorMatrix type="matrix" values="0 0 0 0 0.0253472 0 0 0 0 0.608333 0 0 0 0 0.223562 0 0 0 1 0"/>
<feBlend mode="normal" in2="BackgroundImageFix" result="effect1_dropShadow_354_5"/>
<feBlend mode="normal" in="SourceGraphic" in2="effect1_dropShadow_354_5" result="shape"/>
</filter>
<linearGradient id="paint0_linear_354_5" x1="48" y1="111.5" x2="153" y2="111.5" gradientUnits="userSpaceOnUse">
<stop stop-color="#05772C"/>
<stop offset="1" stop-color="#069B39"/>
</linearGradient>
</defs>
</svg>
