<svg width="70" height="50" viewBox="0 0 70 50" fill="none" xmlns="http://www.w3.org/2000/svg">
<g clip-path="url(#clip0_312_22)">
<path d="M16.5171 13.0358H29.7197V14.2778H17.7273V23.6252H29.0046V24.8672H17.7273V35.1297H29.8572V36.3717H16.5171V13.0358ZM30.9024 13.0358H32.3052L38.5215 23.2984L44.8752 13.0358L53.5174 0L39.3191 24.3769L46.6356 36.3717H45.1778L38.5215 25.4555L31.8376 36.3717H30.4073L37.7788 24.3769L30.9024 13.0358ZM47.1582 14.2778V13.0358H62.2037V14.2778H55.2723V36.3717H54.0621V14.2778H47.1582ZM0 13.0358H1.5128L22.3735 49.9812L13.7528 36.3717L1.26525 14.8007L1.21024 36.3717H0L0 13.0358ZM62.0818 34.7549C61.8345 34.7549 61.649 34.5282 61.649 34.2352C61.649 33.9421 61.8345 33.7154 62.0818 33.7154C62.332 33.7154 62.5145 33.9421 62.5145 34.2352C62.5145 34.5282 62.332 34.7549 62.0818 34.7549ZM63.271 33.3875H63.9186C63.9274 33.8026 64.1835 34.0817 64.5603 34.0817C64.9812 34.0817 65.2196 33.7817 65.2196 33.22V29.6619H65.879V33.2235C65.879 34.2352 65.3845 34.8177 64.5661 34.8177C63.7979 34.8177 63.271 34.2526 63.271 33.3875ZM66.7415 33.3421H67.3949C67.4509 33.82 67.8453 34.1235 68.4134 34.1235C68.9433 34.1235 69.3318 33.7991 69.3318 33.3526C69.3318 32.9689 69.0845 32.7386 68.5223 32.5817L67.9748 32.4247C67.2065 32.2119 66.8563 31.7724 66.8563 31.0328C66.8563 30.1363 67.4744 29.5398 68.4016 29.5398C69.2641 29.5398 69.894 30.1363 69.9323 30.984H69.2906C69.2288 30.52 68.8873 30.2305 68.3928 30.2305C67.8718 30.2305 67.5244 30.527 67.5244 30.9805C67.5244 31.3398 67.7482 31.5456 68.3016 31.6991L68.7696 31.8351C69.6409 32.0758 70 32.4945 70 33.2514C70 34.2142 69.3701 34.8177 68.3634 34.8177C67.4214 34.8177 66.7885 34.2421 66.7415 33.3421Z" fill="black"/>
</g>
<defs>
<clipPath id="clip0_312_22">
<rect width="70" height="50" fill="white"/>
</clipPath>
</defs>
</svg>
